<?xml version="1.0" encoding="UTF-8" standalone="no"?>
<!-- Created with Inkscape (http://www.inkscape.org/) -->

<svg
   version="1.1"
   id="svg1"
   width="453.33334"
   height="453.33334"
   viewBox="0 0 453.33334 453.33334"
   xmlns="http://www.w3.org/2000/svg"
   xmlns:svg="http://www.w3.org/2000/svg">
  <defs
     id="defs1" />
  <g
     id="layer1">
    <path
       style="fill:#43e9ff;fill-opacity:1;stroke-width:0.596491"
       d="m 98.722026,301.82729 c -0.654641,-0.65464 -1.815854,-2.46648 -2.580474,-4.02631 -1.147536,-2.34099 -17.789342,-30.51077 -28.202134,-47.7381 -1.442995,-2.38734 -2.62496,-4.53471 -2.62659,-4.77193 -0.01357,-1.97496 -6.326685,-5.44177 -10.056763,-5.52261 -2.765883,-0.0599 -8.7265,-5.69817 -11.058184,-10.46009 -1.498417,-3.06017 -1.660532,-3.93671 -1.418741,-7.67107 0.724395,-11.18799 9.23894,-18.80348 21.045423,-18.82323 6.82264,-0.0114 14.470299,5.10722 17.609891,11.78641 1.908857,4.06092 2.104752,7.57043 0.699704,12.5354 l -1.21393,4.28962 1.325355,2.5417 c 0.728945,1.39793 5.981886,10.46012 11.673202,20.13819 5.691317,9.67807 10.715795,18.3064 11.165505,19.17408 0.44971,0.86767 1.21895,1.91062 1.70941,2.31767 0.98614,0.81842 1.07423,0.78948 14.59227,-4.79385 27.29015,-11.27159 61.53677,-18.66749 92.60898,-19.99981 5.16915,-0.22164 9.54582,-0.64142 9.72592,-0.93283 0.24658,-0.39898 -6.23858,-7.92136 -8.69101,-10.08105 -0.18628,-0.16404 -2.20735,-2.60207 -4.49129,-5.41785 -9.96135,-12.28099 -17.64969,-24.68149 -22.97456,-37.05559 -2.70407,-6.2838 -5.74067,-15.38171 -7.42498,-22.24586 -4.61832,-18.82129 -5.77594,-29.73083 -5.03186,-47.42105 0.2987,-7.1013 0.22306,-10.04736 -0.27161,-10.57915 -0.81518,-0.87637 -7.20707,1.74096 -18.55485,7.59778 -15.16418,7.82654 -39.17419,23.07408 -40.08923,25.45863 -0.31791,0.82849 3.74875,7.80986 17.30948,29.71572 14.18919,22.92108 13.02713,21.42301 17.11308,22.0615 10.0521,1.5708 18.89018,12.98754 16.73591,21.61887 -0.79232,3.17448 -4.12859,9.50644 -5.80437,11.01621 -0.59919,0.53982 -2.83417,1.87498 -4.96663,2.96702 -3.58968,1.83829 -4.29741,1.98552 -9.54386,1.98552 -5.09993,0 -6.01603,-0.17702 -9.15989,-1.76996 -8.90291,-4.51098 -13.72879,-15.86278 -9.90769,-23.30567 1.42455,-2.77478 1.17924,-4.38264 -1.12865,-7.39767 -0.89387,-1.16775 -3.06361,-4.53898 -4.82164,-7.49161 -5.20922,-8.74892 -8.16579,-13.54961 -25.607062,-41.57902 -4.635235,-7.44917 -8.4277,-13.93482 -8.4277,-14.41256 0,-0.47774 1.811842,-2.16404 4.026316,-3.74735 2.214474,-1.5833 5.234211,-3.755 6.710526,-4.82601 10.0349,-7.27988 31.37578,-20.76446 39.36842,-24.87558 2.46053,-1.26561 5.14474,-2.75073 5.96491,-3.30027 3.56004,-2.38533 26.04412,-12.419395 29.89826,-13.34282 0.86071,-0.206219 2.17968,-0.872736 2.93104,-1.481148 1.49779,-1.212845 1.45289,-1.755287 -0.87245,-10.540508 -1.6457,-6.217525 -1.80659,-15.151355 -0.41357,-22.964912 1.74379,-9.780943 4.3518,-19.150699 5.53592,-19.888768 1.20057,-0.74832 8.95876,0.980613 16.60502,3.700471 2.78859,0.991935 8.42544,2.996377 12.52631,4.454315 9.58773,3.408617 14.24807,5.183475 19.40132,7.38885 2.28805,0.97919 5.09956,2.143274 6.24781,2.586854 5.42814,2.096951 17.94573,8.727419 23.45639,12.424666 6.57823,4.41351 5.10498,3.914749 22.17519,7.507286 15.68425,3.300854 36.73254,9.422522 44.28297,12.879227 1.39072,0.636694 2.78099,1.157626 3.08948,1.157626 1.59698,0 12.82496,5.858748 18.84005,9.830711 6.23349,4.11618 10.52629,7.91833 17.29627,15.31933 1.35703,1.48352 3.92937,3.33197 5.96491,4.2863 12.94024,6.06683 24.39819,13.82581 33.08358,22.4032 9.30948,9.19372 10.50253,12.63589 7.46991,21.55216 -2.99039,8.79211 -9.54138,17.35684 -19.0798,24.94485 -2.29649,1.82691 -4.53014,3.66698 -4.96366,4.08904 -1.33942,1.30402 -2.51602,0.85675 -3.41668,-1.29881 -1.03095,-2.46742 -1.98032,-3.02897 -7.60668,-4.49932 -3.88156,-1.01437 -16.67725,-3.6793 -20.88626,-4.34993 -1.98487,-0.31624 -9.94705,0.98412 -12.58051,2.05462 -2.44557,0.99413 -7.68663,4.33969 -9.43578,6.02321 -4.06223,3.90981 -7.58163,10.01109 -7.60611,13.18607 -0.0512,6.63721 9.46748,13.55061 22.71024,16.49444 5.33106,1.18508 14.35557,0.53605 18.912,-1.36013 3.28483,-1.367 3.80366,-1.44533 4.11961,-0.62197 0.46967,1.22394 -2.38855,13.668 -4.97626,21.66553 -3.33628,10.31103 -10.92287,24.74304 -17.65767,33.59023 -5.65747,7.43196 -16.14795,17.63904 -20.55026,19.99508 -1.00133,0.5359 -2.36837,0.0708 -8.00322,-2.72288 -16.28869,-8.07573 -44.45417,-15.94678 -64.65526,-18.06838 -16.62266,-1.74579 -20.41189,-1.91615 -34.89474,-1.56887 -24.91308,0.59738 -44.11474,3.6158 -69.19298,10.87686 -5.24376,1.51826 -20.58795,6.93512 -21.14561,7.4649 -0.31167,0.29608 -0.9293,0.53832 -1.37252,0.53832 -1.1482,0 -11.02745,4.23365 -20.31274,8.70482 -4.36488,2.10182 -8.18988,3.8215 -8.50001,3.8215 -0.31012,0 -1.099473,-0.53561 -1.754114,-1.19026 z M 327.66002,265.58773 c 4.97907,-5.31259 13.4156,-19.09906 14.17958,-23.17142 l 0.3609,-1.92375 -5.0637,-1.54452 c -2.78503,-0.84949 -5.3941,-1.54453 -5.79792,-1.54453 -1.97892,0 -12.92668,-6.49403 -16.06732,-9.53086 -8.24772,-7.97512 -11.50099,-14.45114 -11.54311,-22.97791 -0.0503,-10.17628 3.80942,-18.36538 12.95273,-27.48184 4.87635,-4.86202 9.63268,-8.17176 15.56444,-10.83067 7.54318,-3.38122 10.8919,-3.99224 21.77193,-3.97254 10.64812,0.0193 16.79777,1.10603 23.845,4.21382 1.79632,0.79217 3.92992,1.36122 4.74133,1.26454 1.99145,-0.23726 6.60666,-5.90895 6.60666,-8.11901 0,-2.58044 -5.5771,-7.75415 -14.53531,-13.484 -3.54515,-2.26754 -19.18439,-10.34806 -23.96658,-12.38311 -1.29677,-0.55184 -3.90119,-1.67786 -5.78759,-2.50227 l -3.42982,-1.49892 V 126.748 c 0,-4.19565 -0.44123,-5.00829 -4.17623,-7.69162 -9.36245,-6.72625 -32.74851,-15.53454 -53.98167,-20.332045 -3.93684,-0.889506 -8.76842,-1.983882 -10.73684,-2.431944 -1.96842,-0.448063 -6.39737,-1.242143 -9.84211,-1.764623 -9.75404,-1.479444 -10.16393,-1.649382 -14.36987,-5.95777 -5.76826,-5.908773 -14.29054,-10.113825 -41.01043,-20.235317 -4.04951,-1.533955 -7.94162,-2.706523 -8.64912,-2.605704 -1.18579,0.168974 -1.28067,0.509755 -1.21341,4.358744 0.10572,6.049462 2.27623,14.280434 4.72154,17.904908 1.11047,1.645945 4.01271,4.939656 6.44943,7.319358 2.43672,2.379702 4.57057,4.862743 4.74189,5.517863 0.43565,1.66593 -0.85574,2.72868 -3.86684,3.18221 -2.74434,0.41335 -12.842,3.78625 -14.01095,4.68006 -0.84378,0.64517 -1.12517,2.32151 -2.33107,13.88683 -3.23095,30.98702 5.75472,65.56218 23.48569,90.36842 5.08618,7.11575 8.78035,11.58945 14.53036,17.59649 2.19823,2.2965 4.48618,4.72224 5.08434,5.39055 2.25232,2.51645 16.92261,13.95885 19.81289,15.45347 0.90951,0.47033 4.04733,1.15445 6.97294,1.52027 20.66142,2.58351 47.99286,9.75043 58.0613,15.225 2.45406,1.33436 3.09669,1.08259 6.49694,-2.54542 z"
       id="path21" />
    <path
       style="fill:#43e9ff;fill-opacity:1;stroke-width:0.596491"
       d="m 171.08944,415.76556 c -7.13594,-1.51886 -13.66978,-7.84181 -15.40026,-14.90319 -0.80759,-3.29545 -0.9288,-7.29009 -0.77894,-25.67201 l 0.17748,-21.7693 1.61516,-3.2807 c 2.09243,-4.25014 6.35405,-8.52539 10.55446,-10.58821 2.931,-1.43942 4.03181,-1.63986 9.00582,-1.63986 4.85146,0 6.09572,0.21453 8.64912,1.49123 3.80353,1.90176 8.54611,6.63492 10.35255,10.33196 1.60878,3.29254 2.69337,10.5856 1.96741,13.22944 l -0.49136,1.78947 -4.92234,-0.18361 c -7.49422,-0.27956 -7.80099,-0.48378 -7.80099,-5.19314 0,-3.73205 -0.10957,-4.03248 -2.34398,-6.42705 -2.15498,-2.30945 -2.5793,-2.50865 -5.26281,-2.47065 -3.24468,0.0459 -4.87399,0.94439 -7.04224,3.88329 l -1.45624,1.97381 v 20.42423 c 0,11.284 0.25059,21.08333 0.55995,21.89701 0.90559,2.38186 2.95,3.85187 5.9263,4.26122 3.03122,0.4169 5.01561,-0.12138 7.06106,-1.91534 1.83961,-1.61344 2.55796,-3.83761 2.55796,-7.92006 0,-2.15596 0.28697,-3.68555 0.74561,-3.97425 1.10209,-0.69372 11.34812,-0.20499 12.30398,0.5869 0.61986,0.51352 0.74461,1.78203 0.5082,5.16737 -0.60702,8.69242 -4.02216,14.30045 -11.2443,18.46432 -3.64155,2.09951 -4.87053,2.49122 -8.50439,2.71058 -2.33623,0.14103 -5.36798,0.018 -6.73721,-0.27346 z"
       id="path22" />
    <path
       style="fill:#43e9ff;fill-opacity:1;stroke-width:0.596491"
       d="m 206.23011,414.91167 c -0.63186,-1.01307 -0.1373,-75.09379 0.5065,-75.86953 0.39055,-0.47059 4.75567,-0.65346 14.42052,-0.60412 l 13.86042,0.0708 3.2807,1.90533 c 4.30837,2.50217 9.17686,7.52531 10.74595,11.0873 2.91847,6.62518 1.91561,16.50304 -2.17221,21.39585 -2.71002,3.24367 -2.78789,4.33259 -0.52369,7.32278 2.43948,3.22166 3.16927,7.49396 3.60123,21.08226 0.28749,9.04335 0.21109,12.91991 -0.26593,13.49469 -0.98901,1.19167 -11.39638,0.59499 -12.42921,-0.7126 -0.52794,-0.66839 -0.7532,-3.9146 -0.77159,-11.11944 -0.0143,-5.59651 -0.25001,-11.33455 -0.52383,-12.7512 -0.5658,-2.92726 -2.95417,-5.80541 -5.84331,-7.04159 -2.15076,-0.92025 -9.4568,-1.12051 -9.98024,-0.27356 -0.18618,0.30124 -0.4551,7.578 -0.59761,16.17059 -0.14251,8.59258 -0.41004,15.77381 -0.59451,15.95828 -0.65499,0.655 -12.29859,0.54894 -12.71319,-0.1158 z m 24.612,-46.33898 c 7.37098,-2.00416 9.11962,-11.7613 2.74945,-15.34153 -2.51276,-1.41226 -11.10309,-2.69442 -12.6185,-1.8834 -0.78321,0.41916 -1.05748,1.88355 -1.36055,7.26406 -0.38579,6.84909 -0.12821,9.37277 1.03693,10.15976 0.98122,0.66276 7.49082,0.53573 10.19267,-0.19889 z"
       id="path23" />
    <path
       style="fill:#43e9ff;fill-opacity:1;stroke-width:0.596491"
       d="m 273.78948,415.83388 c -5.29199,-1.39234 -10.96481,-5.83999 -13.53084,-10.60854 -2.74259,-5.09668 -2.98483,-7.77343 -2.7718,-30.62884 0.19153,-20.54817 0.23704,-21.25495 1.53639,-23.85965 4.17045,-8.36019 11.44071,-13.07939 20.19478,-13.10865 2.32956,-0.008 5.14798,0.30241 6.26316,0.68933 8.23158,2.85599 13.8972,10.66087 15.14004,20.85671 0.56016,4.59533 -0.0422,5.13421 -6.28662,5.62367 -6.33781,0.49679 -6.79751,0.15031 -7.31453,-5.51292 -0.34473,-3.77609 -0.54625,-4.23826 -2.75186,-6.3113 -1.98802,-1.86852 -2.80113,-2.23647 -4.93808,-2.23461 -2.94739,0.003 -5.86821,1.55975 -7.44683,3.97014 -0.9841,1.50263 -1.07627,3.38222 -1.07627,21.94953 0,22.86895 0.13406,23.71685 4.04308,25.5718 2.82768,1.34182 5.03861,1.2418 7.83401,-0.35439 3.00815,-1.71767 4.71084,-4.99429 4.84917,-9.33163 0.0585,-1.8337 0.144,-3.56578 0.19004,-3.84906 0.046,-0.28329 0.95607,-0.31587 2.0223,-0.0724 1.06623,0.24346 3.73944,0.40524 5.94047,0.35949 3.54407,-0.0736 4.08131,0.0652 4.69616,1.21411 1.53975,2.87703 -0.83009,12.24306 -4.35376,17.20685 -4.28805,6.04057 -8.53959,8.39998 -15.67761,8.70036 -2.62456,0.11045 -5.57719,-0.0111 -6.5614,-0.27 z"
       id="path24" />
    <path
       style="fill:#43e9ff;fill-opacity:1;stroke-width:0.596491"
       d="m 318.34191,127.91968 c -2.72599,-0.43009 -9.71351,-0.88331 -15.52782,-1.00716 -5.81431,-0.12385 -10.86195,-0.40471 -11.21698,-0.62413 -1.08343,-0.6696 -6.88219,-13.00194 -6.53681,-13.90198 0.51155,-1.33307 2.75375,-1.00998 10.31074,1.48573 12.3992,4.09486 30.89561,12.61583 30.43387,14.02035 -0.30151,0.91714 -1.78799,0.92256 -7.463,0.0272 z"
       id="path25" />
    <path
       style="fill:#1a2653;fill-opacity:1;stroke-width:0.596491"
       d="m 318.52632,266.60307 c -10.23313,-4.90537 -35.95787,-11.51202 -53.38596,-13.71063 -7.37123,-0.9299 -8.52935,-1.35119 -13.28995,-4.83445 -11.88722,-8.69771 -20.31007,-16.74673 -29.68432,-28.36685 -14.28963,-17.71312 -23.92958,-39.8808 -27.72305,-63.75088 -1.52302,-9.58354 -1.79882,-25.27113 -0.63267,-35.98771 0.85741,-7.87946 1.58633,-11.39114 2.36443,-11.39114 0.102,0 2.32419,-0.77231 4.93819,-1.71625 2.61401,-0.94393 6.19359,-2.02524 7.95463,-2.40292 6.52518,-1.3994 6.38409,-2.71759 -1.12544,-10.514245 -4.72293,-4.903516 -6.16138,-6.821542 -7.21048,-9.614475 -1.6198,-4.312282 -2.99485,-11.278769 -2.99485,-15.173008 0,-2.737355 0.0993,-2.929984 1.50997,-2.929984 0.83049,0 4.98258,1.342105 9.22687,2.982456 4.24429,1.640351 7.84754,2.982456 8.00721,2.982456 0.68882,0 13.73167,5.731232 19.91614,8.75146 5.37311,2.623997 7.7054,4.190819 11.44754,7.690434 2.5848,2.417276 5.31929,4.518714 6.07665,4.669863 0.75736,0.151149 2.98755,0.558987 4.95597,0.906307 6.20475,1.094804 21.86418,4.273304 27.14035,5.508861 20.58229,4.819895 45.65238,14.806365 52.90184,21.073035 1.93191,1.67 2.16162,2.18643 2.27359,5.11132 0.0685,1.7895 0.16363,3.55082 0.21141,3.91405 0.0478,0.36323 2.70395,1.8052 5.90264,3.20436 7.7409,3.38603 21.50971,10.35646 26.69298,13.51327 5.48875,3.34287 12.05401,8.6371 13.86229,11.17858 1.38317,1.94399 1.40457,2.11297 0.49131,3.87902 -0.52517,1.01558 -1.78291,2.7896 -2.79497,3.94227 -2.17168,2.47341 -3.86208,2.66275 -7.88505,0.88319 -8.06673,-3.56829 -22.33054,-5.27708 -32.26044,-3.86477 -11.36278,1.61612 -20.76217,6.34077 -29.01541,14.58475 -9.54078,9.53008 -13.57442,18.8076 -12.87855,29.62121 0.47022,7.30712 2.77149,11.89583 9.60793,19.15815 4.24997,4.51472 5.80112,5.7016 10.84588,8.29883 3.23766,1.66686 8.50376,3.78515 11.70245,4.70732 5.35795,1.54467 5.81579,1.79401 5.81579,3.16731 0,2.83995 -8.83665,17.50688 -13.9869,23.21522 -3.28182,3.63744 -3.9318,3.73255 -8.97802,1.31359 z m 8.32064,-138.51941 c -1.1874,-3.0943 -36.32548,-17.69229 -40.9849,-17.02702 -0.72795,0.10394 -1.40446,0.61395 -1.50335,1.13336 -0.0989,0.51942 1.37469,4.00889 3.27461,7.75439 l 3.45441,6.81 10.73684,0.42375 c 5.90526,0.23306 12.61579,0.66884 14.91228,0.9684 6.55758,0.85539 10.45319,0.83116 10.11011,-0.0629 z"
       id="path26" />
    <path
       style="fill:#1a2653;fill-opacity:1;stroke-width:0.596491"
       d="m 215.03509,452.78311 c 0,-0.99916 -3.78176,-1.74906 -10.73684,-2.12905 -25.10743,-1.37174 -62.57064,-12.7975 -87.08772,-26.56054 -17.318838,-9.72221 -34.623025,-22.69221 -47.733557,-35.77772 -7.60413,-7.58962 -15.66732,-16.09093 -17.283989,-18.22311 -7.276893,-9.59733 -18.491229,-25.45931 -18.491229,-26.15468 0,-0.14326 -1.178096,-2.25315 -2.61799,-4.68863 C 26.029004,330.69962 20.381947,318.9663 16.947404,309.8772 12.940882,299.27442 12.744893,298.72435 11.527966,294.66667 8.1667465,283.45914 6.3707144,275.63359 4.272275,263.05264 c -3.60017348,-21.58442 -4.44603511,-38.20899 -2.5948897,-51 0.5222702,-3.60878 0.9658481,-8.30614 0.9857286,-10.4386 0.03613,-3.8754 2.5203258,-19.06614 4.6822278,-28.63158 1.8003328,-7.96566 4.4800293,-16.53513 9.3097393,-29.77183 3.626447,-9.93894 11.823114,-25.676 21.294609,-40.88423 5.697131,-9.147787 18.370754,-24.727512 27.561804,-33.881804 11.862761,-11.815322 17.893013,-16.935682 32.611315,-27.69066 9.590101,-7.00769 26.393181,-16.099819 40.561401,-21.947733 3.77281,-1.55722 7.3965,-3.066898 8.05264,-3.354838 0.65614,-0.287941 5.3535,-1.895138 10.43859,-3.571548 9.21251,-3.0371052 15.42485,-4.5779601 25.05263,-6.2138398 2.7886,-0.4738168 6.81774,-1.2439735 8.95364,-1.7114592 2.1359,-0.4674856 7.50432,-1.1765788 11.92982,-1.5757627 4.42551,-0.3991839 9.61147,-1.0977064 11.52437,-1.55227213 4.08676,-0.9711425 21.36032,-1.14277146 23.06734,-0.22919561 0.61383,0.32850818 5.22645,1.00213114 10.25027,1.49693984 24.4201,2.4051981 47.43421,8.2495076 67.10024,17.0397506 1.58184,0.707046 3.81556,1.695817 4.9638,2.197269 4.59923,2.008533 12.34272,5.959556 22.97088,11.720611 1.5708,0.85146 17.287,11.792937 19.97649,13.907452 1.14825,0.902767 4.63254,3.644759 7.74287,6.093318 7.10691,5.594791 23.52839,21.858303 29.32196,29.039879 2.41522,2.993855 5.33079,6.592433 6.47903,7.996836 1.14825,1.404403 3.89974,5.262776 6.11442,8.574162 2.21468,3.311395 4.41392,6.587855 4.88721,7.281025 0.47328,0.69318 1.59098,2.57213 2.48377,4.17544 0.8928,1.60332 2.16174,3.85459 2.81989,5.00284 8.60201,15.00774 15.21353,30.28829 18.96939,43.84211 0.36364,1.31228 1.01832,3.59386 1.45484,5.07017 2.79157,9.44121 6.42886,28.34473 7.1159,36.98246 0.19571,2.46052 0.90721,9.15164 1.58111,14.86914 1.20799,10.24888 1.20121,14.45376 -0.0333,20.62209 -0.32829,1.64035 -0.88107,6.87456 -1.2284,11.63158 -1.3077,17.91028 -6.61107,40.88546 -13.90653,60.24561 -2.47184,6.5596 -10.73841,24.03936 -13.23807,27.9921 -0.74109,1.17189 -2.76473,4.5465 -4.49697,7.49913 -3.7347,6.36585 -13.38677,19.91468 -19.54699,27.4386 -5.19458,6.34449 -18.20307,19.62812 -23.86794,24.37276 -10.88912,9.12024 -16.71478,13.55853 -25.24944,19.23632 -5.12408,3.40886 -9.46374,6.19794 -9.64369,6.19794 -0.17994,0 -2.38032,1.21385 -4.88971,2.69744 -11.89797,7.03428 -27.58479,13.54938 -46.53604,19.32751 -10.13109,3.08891 -30.46394,6.82256 -40.85965,7.5029 -6.48757,0.42458 -12.52631,1.45981 -12.52631,2.14741 0,0.29563 -4.6733,0.53526 -10.4386,0.53526 -5.97634,0 -10.4386,-0.2352 -10.4386,-0.55023 z m -35.14656,-36.44103 c 4.49059,-0.85162 10.86848,-4.85613 13.68996,-8.59557 3.99763,-5.29825 6.1456,-16.19773 3.63912,-18.46606 -0.92059,-0.83313 -2.14478,-0.9797 -6.99972,-0.83806 l -5.884,0.17165 -0.66051,4.77193 c -0.8251,5.96112 -1.08362,6.53882 -3.63036,8.11279 -3.086,1.90725 -7.57748,1.36696 -9.85847,-1.18591 -1.66782,-1.86663 -1.67633,-1.91863 -1.79444,-10.9626 -0.37674,-28.84998 -0.26735,-32.20938 1.12133,-34.43796 2.63023,-4.22105 7.53673,-5.44554 10.80403,-2.69629 2.16878,1.82492 2.99062,3.75226 3.56019,8.34927 l 0.44174,3.56526 2.90815,0.48755 c 1.59948,0.26816 4.55175,0.40853 6.5606,0.31194 l 3.65245,-0.17563 -0.0365,-5.72858 c -0.0319,-5.0065 -0.24481,-6.15445 -1.68941,-9.10711 -2.0536,-4.19739 -6.20021,-8.46689 -10.5022,-10.81343 -2.95829,-1.61361 -3.80952,-1.78947 -8.66167,-1.78947 -4.87833,0 -5.75315,0.18323 -9.36548,1.96157 -2.76844,1.3629 -4.98422,3.06628 -7.26009,5.5812 -5.26223,5.81496 -5.31286,6.07652 -5.58806,28.87067 -0.3214,26.62004 0.27508,30.22142 5.96441,36.01137 3.5019,3.56384 6.14954,5.21875 9.99861,6.24961 4.01139,1.07434 5.49386,1.12873 9.59028,0.35186 z M 286.391,415.6753 c 2.95882,-0.75864 7.72187,-4.76919 10.31687,-8.68692 3.44556,-5.20184 5.59621,-15.75975 3.61095,-17.72668 -0.35953,-0.35622 -2.44939,-0.65188 -4.64415,-0.65704 -2.19475,-0.005 -4.69002,-0.2259 -5.54505,-0.49052 -2.34517,-0.72578 -3.44811,0.69308 -3.07967,3.96182 0.3968,3.52046 -1.45536,7.71786 -4.1234,9.34451 -3.71043,2.26217 -9.33539,1.08973 -10.78157,-2.24728 -0.76006,-1.75381 -1.42618,-38.13661 -0.76296,-41.6719 0.86132,-4.59121 6.61593,-7.8576 10.39779,-5.90192 3.22907,1.66982 4.83423,4.24854 4.83423,7.76629 0,4.71849 1.13752,5.82866 6.00027,5.85605 4.8781,0.0275 7.58161,-0.58722 8.27417,-1.88129 0.86128,-1.60931 -0.86006,-9.95801 -2.91291,-14.12793 -2.30294,-4.67794 -5.40127,-7.87177 -9.62638,-9.92309 -10.91063,-5.29719 -24.0781,-0.21938 -29.68485,11.44745 l -1.57661,3.2807 v 22.66667 22.66667 l 1.89939,4.02236 c 5.0174,10.62539 15.53264,15.34585 27.40388,12.30205 z m -66.94604,-0.86443 c 0.19914,-0.51893 0.36502,-6.89393 0.36863,-14.16667 0.008,-16.29195 0.16424,-17.46256 2.38882,-17.90748 2.4928,-0.49856 7.63118,0.48927 9.39498,1.80613 3.82503,2.8558 3.96286,3.37014 4.61162,17.20971 0.35606,7.59558 0.86062,13.01792 1.24709,13.40211 0.40277,0.40039 2.88393,0.58002 6.53822,0.47336 l 5.88914,-0.17188 0.35965,-1.78947 c 0.19782,-0.98421 0.15843,-7.33966 -0.0875,-14.1232 -0.47504,-13.10208 -0.98191,-15.77393 -3.77254,-19.88616 -0.83787,-1.23466 -1.5234,-2.58462 -1.5234,-2.9999 0,-0.41528 0.93505,-1.87424 2.07788,-3.24212 1.14283,-1.36787 2.48493,-3.85777 2.98245,-5.53311 1.32978,-4.47788 1.17545,-11.60472 -0.33897,-15.65236 -1.66574,-4.45208 -6.79376,-9.95605 -11.53758,-12.38342 l -3.62237,-1.85354 -13.67261,0.1208 c -8.66111,0.0765 -13.9546,0.35485 -14.44197,0.75932 -0.61277,0.50856 -0.77501,8.31556 -0.79708,38.35753 -0.0152,20.74545 0.15338,37.90011 0.37472,38.12144 0.22134,0.22134 3.28161,0.40244 6.80061,0.40244 5.28403,0 6.46121,-0.1643 6.76023,-0.94353 z M 111.31842,298.4708 c 27.86459,-12.96851 54.74447,-20.90333 83.73422,-24.71797 12.2196,-1.60792 39.29173,-2.25293 50.68708,-1.20765 8.78552,0.80589 19.57755,2.19004 23.57608,3.0238 21.69339,4.52343 36.51446,9.14994 49.95666,15.59434 4.01915,1.92684 7.78196,3.50335 8.36181,3.50335 2.26858,0 15.31524,-12.2475 21.28632,-19.98245 3.3406,-4.32743 8.67591,-12.37225 8.67591,-13.08194 0,-0.15764 0.75261,-1.57343 1.67247,-3.1462 4.69387,-8.0256 9.38075,-21.27101 12.34637,-34.89163 1.36388,-6.26407 0.88373,-6.8292 -3.97587,-4.67956 -1.44926,0.64107 -5.06315,1.46082 -8.03088,1.82166 -4.69536,0.5709 -6.1252,0.50708 -11.01375,-0.49158 -9.54946,-1.95083 -18.60515,-7.17413 -21.2266,-12.24344 -1.82559,-3.5303 -0.75038,-7.68529 3.40264,-13.14907 4.4128,-5.80553 10.65871,-9.57604 18.00533,-10.8694 5.79209,-1.01968 5.98902,-0.99696 23.73257,2.73729 3.11918,0.65646 8.53121,2.34073 9.50814,2.95902 0.47247,0.29902 1.28804,1.43576 1.81239,2.5261 0.53997,1.1228 1.37215,1.95049 1.91912,1.90878 1.52173,-0.11604 10.57366,-7.46191 15.21215,-12.34503 7.55794,-7.95654 13.24463,-19.92858 12.49051,-26.29593 -1.03665,-8.75288 -17.80948,-23.18706 -40.34582,-34.72039 -4.09179,-2.09404 -6.49555,-3.79551 -8.64912,-6.12216 -5.19062,-5.60777 -7.08593,-7.4728 -9.84211,-9.68486 -3.66003,-2.93746 -12.17006,-8.382672 -16.57969,-10.608646 -6.94985,-3.508275 -22.9319,-9.417285 -32.63083,-12.064531 -11.88762,-3.244626 -20.16801,-5.317868 -24.45615,-6.12331 -12.6745,-2.380663 -15.21331,-3.250001 -21.31111,-7.297319 -10.70877,-7.107772 -27.98654,-14.820023 -54.44327,-24.301746 -15.47953,-5.547646 -23.21916,-7.539269 -24.46333,-6.295099 -1.03339,1.03339 -4.09097,12.430948 -5.42727,20.230913 -1.25654,7.334325 -0.84657,18.648648 0.90777,25.052632 2.09957,7.664232 1.88184,8.144026 -4.71893,10.398894 -6.55353,2.238727 -21.37339,9.113682 -30.7193,14.250732 -14.47028,7.9537 -29.83885,17.68236 -44.885963,28.41388 -6.177836,4.40599 -7.903509,5.93343 -7.903509,6.99557 0,0.74737 6.53001,11.89902 14.511142,24.78147 7.98112,12.88243 16.29883,26.44005 18.48379,30.12804 2.18496,3.68799 4.80141,7.84851 5.81433,9.24561 1.99272,2.74854 2.01758,3.52661 0.26226,8.20686 -2.88161,7.6833 2.59758,18.41413 11.51302,22.54791 2.81794,1.30658 4.26514,1.57844 8.47871,1.59274 4.5421,0.0154 5.49723,-0.18767 9.0085,-1.9154 5.68855,-2.7991 6.55353,-3.65959 9.42554,-9.37659 2.4448,-4.86661 2.5735,-5.37291 2.28366,-8.98377 -0.34741,-4.32789 -1.80019,-7.53523 -5.31428,-11.73242 -2.66634,-3.18466 -8.53045,-6.44826 -11.58635,-6.44826 -2.53806,0 -4.78337,-1.93947 -7.35206,-6.35063 -1.11822,-1.92031 -3.29645,-5.50463 -4.84051,-7.96516 -5.86239,-9.34198 -11.80058,-18.96805 -14.63832,-23.72935 -1.61929,-2.71692 -3.95075,-6.60783 -5.18101,-8.64646 -1.23026,-2.03863 -2.23684,-4.02763 -2.23684,-4.42001 0,-3.59495 50.82497,-32.99366 57.04,-32.99366 h 1.40131 l -0.37051,12.67544 c -0.41221,14.10169 0.14304,21.40994 2.52654,33.25439 3.65483,18.16223 7.5041,29.69781 14.26284,42.7432 7.32109,14.13084 15.2463,25.16767 27.7703,38.67361 l 4.42106,4.76769 -1.78016,0.38104 c -0.97908,0.20957 -4.35064,0.41279 -7.49234,0.45161 -9.83438,0.1215 -20.71382,1.37674 -39.62115,4.57136 -7.35675,1.24302 -11.40008,2.17295 -25.37929,5.83703 -9.66914,2.53437 -26.10166,8.39427 -35.69469,12.72886 -5.55513,2.51007 -6.3008,2.4802 -8.07057,-0.32328 -0.84681,-1.34145 -1.53966,-2.58266 -1.53966,-2.75826 0,-0.1756 -0.90375,-1.72436 -2.00834,-3.44168 -3.160064,-4.91301 -16.540651,-27.78046 -18.648711,-31.87069 l -1.904698,-3.69566 1.140527,-3.6645 c 0.627288,-2.01548 1.140521,-4.69039 1.140521,-5.94425 0,-6.179 -5.931252,-14.62582 -12.460564,-17.74536 -2.808412,-1.34178 -4.16163,-1.60062 -8.416629,-1.60993 -4.700453,-0.0103 -5.385185,0.1517 -9.390047,2.22113 -7.451685,3.85052 -11.125189,10.01855 -11.046563,18.54783 0.04241,4.60008 2.313662,9.00803 6.776066,13.15067 2.734108,2.5382 3.977567,3.24197 6.859649,3.88242 4.719856,1.04882 7.551877,2.56581 8.609767,4.61186 1.593657,3.08229 13.914649,24.01076 23.824146,40.46776 3.358282,5.57719 6.644984,11.21403 7.303785,12.52632 1.538035,3.06362 3.386131,5.07017 4.669801,5.07017 0.55698,0 5.40887,-2.04604 10.78199,-4.54675 z"
       id="path27" />
    <path
       style="fill:#1a2653;fill-opacity:1;stroke-width:0.596491"
       d="m 220.45054,367.79352 c -1.12902,-1.3604 -0.59701,-15.1359 0.61585,-15.94613 1.98705,-1.32742 11.14306,0.64155 13.69496,2.94506 3.57747,3.22925 2.76982,9.58327 -1.58043,12.43366 -2.31695,1.51812 -11.59803,1.9318 -12.73038,0.56741 z"
       id="path28" />
  </g>
</svg>
